<?xml version="1.0" encoding="UTF-8"?>
<svg id="Layer_2" data-name="Layer 2" xmlns="http://www.w3.org/2000/svg" viewBox="0 0 53.01 53.01">
  <defs>
    <style>
      .cls-1 {
        fill: #fff;
      }
    </style>
  </defs>
  <g id="Layer_1-2" data-name="Layer 1">
    <g>
      <path class="cls-1" d="M26.5,0C11.87,0,0,11.87,0,26.5s11.87,26.5,26.5,26.5,26.5-11.87,26.5-26.5S41.14,0,26.5,0Zm16.78,34.99c-.4,1.52-1.59,2.71-3.1,3.12-2.73,.74-13.68,.74-13.68,.74,0,0-10.95,0-13.68-.74-1.51-.41-2.69-1.6-3.1-3.12-.73-2.75-.73-8.48-.73-8.48,0,0,0-5.74,.73-8.48,.4-1.52,1.59-2.71,3.1-3.12,2.73-.74,13.68-.74,13.68-.74,0,0,10.95,0,13.68,.74,1.51,.41,2.69,1.6,3.1,3.12,.73,2.75,.73,8.48,.73,8.48,0,0,0,5.74-.73,8.48Z"/>
      <polygon class="cls-1" points="22.92 31.71 32.08 26.5 22.92 21.3 22.92 31.71"/>
    </g>
  </g>
</svg>