<?xml version="1.0" encoding="UTF-8"?>
<svg id="Layer_2" data-name="Layer 2" xmlns="http://www.w3.org/2000/svg" viewBox="0 0 53.36 53.37">
  <defs>
    <style>
      .cls-1 {
        fill: #fff;
      }
    </style>
  </defs>
  <g id="Layer_1-2" data-name="Layer 1">
    <g>
      <path class="cls-1" d="M53.23,15.69c-.13-2.84-.58-4.79-1.24-6.48-.68-1.79-1.72-3.4-3.09-4.73-1.33-1.36-2.95-2.41-4.72-3.08-1.7-.66-3.64-1.12-6.47-1.24-2.86-.14-3.76-.17-11.01-.17s-8.15,.03-11,.16c-2.84,.13-4.79,.58-6.47,1.24-1.79,.68-3.4,1.72-4.73,3.09-1.36,1.33-2.41,2.95-3.08,4.72-.66,1.7-1.12,3.64-1.24,6.47-.14,2.86-.17,3.76-.17,11.01s.03,8.15,.16,11c.13,2.84,.58,4.79,1.24,6.48,.68,1.79,1.73,3.4,3.09,4.73,1.33,1.36,2.95,2.41,4.72,3.08,1.7,.66,3.64,1.12,6.48,1.24,2.85,.13,3.75,.16,11,.16s8.15-.03,11-.16c2.84-.13,4.79-.58,6.47-1.24,3.59-1.39,6.42-4.22,7.81-7.81,.66-1.7,1.12-3.64,1.24-6.48,.13-2.85,.16-3.75,.16-11s-.01-8.15-.14-11Zm-4.81,21.79c-.11,2.61-.55,4.01-.92,4.95-.9,2.33-2.74,4.17-5.07,5.07-.94,.36-2.36,.8-4.95,.92-2.82,.13-3.66,.16-10.78,.16s-7.98-.03-10.78-.16c-2.61-.11-4.01-.55-4.95-.92-1.16-.43-2.21-1.11-3.07-1.99-.89-.87-1.56-1.91-1.99-3.07-.36-.94-.8-2.36-.92-4.95-.13-2.82-.16-3.66-.16-10.78s.03-7.98,.16-10.78c.11-2.61,.55-4.01,.92-4.95,.43-1.16,1.11-2.21,2-3.07,.87-.89,1.91-1.56,3.07-1.99,.94-.36,2.36-.8,4.95-.92,2.82-.13,3.66-.16,10.78-.16s7.98,.03,10.78,.16c2.61,.11,4.01,.55,4.95,.92,1.16,.43,2.21,1.1,3.07,1.99,.89,.87,1.56,1.91,1.99,3.07,.36,.94,.8,2.36,.92,4.95,.13,2.82,.16,3.66,.16,10.78s-.03,7.96-.16,10.77Z"/>
      <path class="cls-1" d="M26.69,12.98c-7.57,0-13.71,6.14-13.71,13.71s6.14,13.71,13.71,13.71,13.71-6.14,13.71-13.71-6.14-13.71-13.71-13.71Zm0,22.6c-4.91,0-8.89-3.98-8.89-8.89s3.98-8.89,8.89-8.89,8.89,3.98,8.89,8.89-3.98,8.89-8.89,8.89Z"/>
      <path class="cls-1" d="M44.15,12.44c0,1.77-1.43,3.2-3.2,3.2s-3.2-1.43-3.2-3.2,1.43-3.2,3.2-3.2,3.2,1.43,3.2,3.2Z"/>
    </g>
  </g>
</svg>