<?xml version="1.0" encoding="UTF-8"?>
<svg id="Layer_2" data-name="Layer 2" xmlns="http://www.w3.org/2000/svg" viewBox="0 0 53.01 53.01">
  <defs>
    <style>
      .cls-1 {
        fill: #fff;
      }
    </style>
  </defs>
  <g id="Layer_1-2" data-name="Layer 1">
    <path class="cls-1" d="M26.5,0C11.87,0,0,11.87,0,26.5s11.87,26.5,26.5,26.5,26.5-11.87,26.5-26.5S41.14,0,26.5,0Zm13.31,21.48c.01,.27,.02,.55,.02,.83,0,8.44-6.43,18.18-18.18,18.18-3.61,0-6.97-1.06-9.79-2.87,.5,.06,1.01,.09,1.52,.09,2.99,0,5.75-1.02,7.94-2.73-2.8-.05-5.16-1.9-5.97-4.44,.39,.07,.79,.12,1.2,.12,.58,0,1.15-.08,1.68-.22-2.92-.59-5.13-3.17-5.13-6.26,0-.03,0-.05,0-.08,.86,.48,1.85,.77,2.89,.8-1.72-1.14-2.84-3.1-2.84-5.32,0-1.17,.32-2.27,.87-3.21,3.15,3.87,7.86,6.41,13.17,6.68-.11-.47-.17-.96-.17-1.46,0-3.53,2.86-6.39,6.39-6.39,1.84,0,3.5,.78,4.66,2.02,1.46-.29,2.82-.82,4.06-1.55-.48,1.49-1.49,2.74-2.81,3.53,1.29-.15,2.52-.5,3.67-1.01-.86,1.28-1.94,2.41-3.19,3.31Z"/>
  </g>
</svg>